{"title":"Eminem ft Rihanna - Love The Way You Lie [KingPinVideos]","uid":5741980,"size":97004842,"categoryP":"other","categoryS":"other","magnet":"?xt=urn:btih:87804fb22d14c6600c8b1879dffc316982c2c6ca&amp;dn=Eminem+ft+Rihanna+-+Love+The+Way+You+Lie+%5BKingPinVideos%5D&amp;tr=udp%3A%2F%2Ftracker.openbittorrent.com%3A80&amp;tr=udp%3A%2F%2Fopen.demonii.com%3A1337&amp;tr=udp%3A%2F%2Ftracker.coppersurfer.tk%3A6969&amp;tr=udp%3A%2F%2Fexodus.desync.com%3A6969","seeders":0,"leechers":0,"uploader":"KingPinMan","files":4,"time":1281067607,"description":"[img]http://a.imageshack.us/img230/2987/emienmeburn2.png[/img]\n\n[img]http://a.imageshack.us/img714/5838/eminemburn.png[/img]\n\n[code]General\nComplete name                    : Eminem ft Rihanna - Love The Way You Lie [KingPinVideos].mpg\nFormat                           : MPEG-PS\nFile size                        : 92.4 MiB\nDuration                         : 4mn 28s\nOverall bit rate                 : 2 882 Kbps\nWriting library                  : encoded by TMPGEnc 4.0 XPress Version. 4.7.4.299\n\nVideo\nID                               : 224 (0xE0)\nFormat                           : MPEG Video\nFormat version                   : Version 1\nFormat settings, BVOP            : Yes\nFormat settings, Matrix          : Default\nDuration                         : 4mn 28s\nBit rate mode                    : Variable\nBit rate                         : 2 575 Kbps\nNominal bit rate                 : 2 700 Kbps\nWidth                            : 384 pixels\nHeight                           : 208 pixels\nDisplay aspect ratio             : 16:9\nFrame rate                       : 29.970 fps\nResolution                       : 8 bits\nScan type                        : Progressive\nBits/(Pixel*Frame)               : 1.076\nStream size                      : 82.5 MiB (89%)\nWriting library                  : TMPGEnc XPress 4.7.4.299\n\nAudio\nID                               : 192 (0xC0)\nFormat                           : MPEG Audio\nFormat version                   : Version 1\nFormat profile                   : Layer 2\nDuration                         : 4mn 28s\nBit rate mode                    : Constant\nBit rate                         : 192 Kbps\nChannel(s)                       : 2 channels\nSampling rate                    : 48.0 KHz\nStream size                      : 6.15 MiB (7%)\n[/code]","torrent":{"xt":"urn:btih:87804fb22d14c6600c8b1879dffc316982c2c6ca","amp;dn":"Eminem+ft+Rihanna+-+Love+The+Way+You+Lie+%5BKingPinVideos%5D","amp;tr":["udp%3A%2F%2Ftracker.openbittorrent.com%3A80","udp%3A%2F%2Fopen.demonii.com%3A1337","udp%3A%2F%2Ftracker.coppersurfer.tk%3A6969","udp%3A%2F%2Fexodus.desync.com%3A6969"],"infoHash":"87804fb22d14c6600c8b1879dffc316982c2c6ca","infoHashBuffer":{"type":"Buffer","data":[135,128,79,178,45,20,198,96,12,139,24,121,223,252,49,105,130,194,198,202]},"announce":[],"urlList":[]}}